<svg width="31" height="31" viewBox="0 0 31 31" fill="none" xmlns="http://www.w3.org/2000/svg">
<path d="M22.657 3.26587C21.5052 3.26587 20.3538 3.70573 19.4753 4.58423L16.1824 7.8772L15.864 7.55884C15.7708 7.46304 15.6594 7.3869 15.5363 7.3349C15.4131 7.28291 15.2809 7.25611 15.1472 7.2561C14.9483 7.25616 14.7539 7.31553 14.5889 7.42665C14.4239 7.53776 14.2957 7.69556 14.2209 7.87987C14.146 8.06419 14.1278 8.26663 14.1686 8.46134C14.2094 8.65604 14.3074 8.83415 14.4499 8.9729L14.7429 9.26587L6.44995 17.5588C5.27317 18.7356 4.93628 20.0237 4.68628 21.0237C4.43628 22.0237 4.27317 22.7356 3.44995 23.5588C3.26248 23.7464 3.15717 24.0007 3.15717 24.2659C3.15717 24.531 3.26248 24.7854 3.44995 24.9729L5.44995 26.9729C5.63749 27.1604 5.89181 27.2657 6.15698 27.2657C6.42215 27.2657 6.67647 27.1604 6.86401 26.9729C7.68724 26.1497 8.39917 25.9866 9.39917 25.7366C10.3992 25.4866 11.6872 25.1497 12.864 23.9729L21.157 15.6799L21.4499 15.9729C21.5421 16.0689 21.6525 16.1455 21.7746 16.1983C21.8967 16.2511 22.0282 16.279 22.1612 16.2803C22.2942 16.2817 22.4262 16.2565 22.5494 16.2062C22.6726 16.1559 22.7845 16.0815 22.8786 15.9874C22.9726 15.8934 23.047 15.7815 23.0973 15.6583C23.1476 15.5351 23.1728 15.4031 23.1714 15.2701C23.1701 15.137 23.1422 15.0056 23.0894 14.8835C23.0366 14.7614 22.96 14.651 22.864 14.5588L22.5457 14.2405L25.8386 10.9475C27.5956 9.19051 27.5956 6.34123 25.8386 4.58423C24.9601 3.70573 23.8087 3.26587 22.657 3.26587ZM16.157 10.6799L19.7429 14.2659L11.4499 22.5588C10.6267 23.3821 9.91479 23.5452 8.91479 23.7952C8.14832 23.9868 7.21483 24.352 6.28979 24.9846L5.43823 24.1331C6.07084 23.208 6.43607 22.2745 6.62768 21.5081C6.87768 20.5081 7.04079 19.7961 7.86401 18.9729L16.157 10.6799Z" fill="black"/>
</svg>
