<svg width="31" height="31" viewBox="0 0 31 31" fill="none" xmlns="http://www.w3.org/2000/svg">
<g clip-path="url(#clip0_17_47)">
<g filter="url(#filter0_d_17_47)">
<path d="M8.74292 2.28345C8.48692 2.28345 8.23089 2.38142 8.03589 2.57642L2.44995 8.16235C2.05895 8.55335 2.05895 9.18642 2.44995 9.57642L8.24292 15.3694L9.65698 13.9553L4.57104 8.86938L8.74292 4.69751L10.0359 5.99048L8.74292 7.28345L10.157 8.69751L11.45 7.40454L12.5359 8.49048L10.45 10.5764L11.7429 11.8694L15.2429 8.36938L13.95 7.07642L9.44995 2.57642C9.25495 2.38142 8.99892 2.28345 8.74292 2.28345ZM23.9832 3.28345C23.4719 3.28395 22.9596 3.48084 22.5691 3.87134L21.157 5.28345L25.157 9.28345L26.5691 7.87134C27.3501 7.09034 27.352 5.82617 26.571 5.04517L25.3953 3.86938C25.0048 3.47888 24.4944 3.28295 23.9832 3.28345ZM19.157 7.28345L5.38745 21.053L6.65698 21.7834L7.15698 23.2834L8.65698 23.7834L9.38745 25.053L23.157 11.2834L19.157 7.28345ZM22.071 15.1975L18.571 18.6975L19.864 19.9905L21.9499 17.9045L23.0359 18.9905L21.7429 20.2834L23.157 21.6975L24.4499 20.4045L25.7429 21.6975L21.571 25.8694L16.4851 20.7834L15.071 22.1975L20.864 27.9905C21.059 28.1855 21.315 28.2834 21.571 28.2834C21.827 28.2834 22.0831 28.1855 22.2781 27.9905L27.864 22.4045C28.255 22.0145 28.255 21.3815 27.864 20.9905L23.364 16.4905L22.071 15.1975ZM4.04956 24.176L3.19409 26.592C3.16928 26.6528 3.15667 26.7178 3.15698 26.7834C3.15698 26.9161 3.20966 27.0432 3.30343 27.137C3.3972 27.2308 3.52437 27.2834 3.65698 27.2834C3.71906 27.2838 3.78066 27.2725 3.83862 27.2502L6.26636 26.3928L4.04956 24.176Z" fill="black"/>
</g>
</g>
<defs>
<filter id="filter0_d_17_47" x="-1.8433" y="2.28345" width="34.0006" height="34" filterUnits="userSpaceOnUse" color-interpolation-filters="sRGB">
<feFlood flood-opacity="0" result="BackgroundImageFix"/>
<feColorMatrix in="SourceAlpha" type="matrix" values="0 0 0 0 0 0 0 0 0 0 0 0 0 0 0 0 0 0 127 0" result="hardAlpha"/>
<feOffset dy="4"/>
<feGaussianBlur stdDeviation="2"/>
<feComposite in2="hardAlpha" operator="out"/>
<feColorMatrix type="matrix" values="0 0 0 0 0 0 0 0 0 0 0 0 0 0 0 0 0 0 0.25 0"/>
<feBlend mode="normal" in2="BackgroundImageFix" result="effect1_dropShadow_17_47"/>
<feBlend mode="normal" in="SourceGraphic" in2="effect1_dropShadow_17_47" result="shape"/>
</filter>
<clipPath id="clip0_17_47">
<rect width="30" height="30" fill="white" transform="translate(0.156982 0.283447)"/>
</clipPath>
</defs>
</svg>
