<svg width="31" height="31" viewBox="0 0 31 31" fill="none" xmlns="http://www.w3.org/2000/svg">
<path d="M9.14138 3.2522C8.8765 3.25634 8.62409 3.3654 8.43954 3.55544C8.25499 3.74549 8.15338 4.00099 8.157 4.26587V8.26587H4.157C4.02449 8.264 3.89293 8.28848 3.76996 8.33789C3.64699 8.3873 3.53507 8.46066 3.4407 8.55371C3.34633 8.64675 3.2714 8.75763 3.22025 8.87988C3.1691 9.00214 3.14276 9.13334 3.14276 9.26587C3.14276 9.39839 3.1691 9.5296 3.22025 9.65186C3.2714 9.77411 3.34633 9.88498 3.4407 9.97803C3.53507 10.0711 3.64699 10.1444 3.76996 10.1938C3.89293 10.2433 4.02449 10.2677 4.157 10.2659H6.78591C6.67199 10.457 6.62508 10.6807 6.6526 10.9015C6.68012 11.1223 6.7805 11.3277 6.93785 11.485C7.09519 11.6424 7.30053 11.7428 7.52134 11.7703C7.74216 11.7978 7.96585 11.7509 8.157 11.637V20.2659H4.157C4.02449 20.264 3.89293 20.2885 3.76996 20.3379C3.64699 20.3873 3.53507 20.4607 3.4407 20.5537C3.34633 20.6468 3.2714 20.7576 3.22025 20.8799C3.1691 21.0021 3.14276 21.1333 3.14276 21.2659C3.14276 21.3984 3.1691 21.5296 3.22025 21.6519C3.2714 21.7741 3.34633 21.885 3.4407 21.978C3.53507 22.0711 3.64699 22.1444 3.76996 22.1938C3.89293 22.2433 4.02449 22.2677 4.157 22.2659H6.78591C6.67199 22.457 6.62508 22.6807 6.6526 22.9015C6.68012 23.1223 6.7805 23.3277 6.93785 23.485C7.09519 23.6424 7.30053 23.7428 7.52134 23.7703C7.74216 23.7978 7.96585 23.7509 8.157 23.637V26.2659C8.15513 26.3984 8.17961 26.5299 8.22902 26.6529C8.27844 26.7759 8.3518 26.8878 8.44484 26.9822C8.53789 27.0765 8.64876 27.1515 8.77102 27.2026C8.89327 27.2538 9.02448 27.2801 9.157 27.2801C9.28953 27.2801 9.42073 27.2538 9.54299 27.2026C9.66525 27.1515 9.77612 27.0765 9.86916 26.9822C9.96221 26.8878 10.0356 26.7759 10.085 26.6529C10.1344 26.5299 10.1589 26.3984 10.157 26.2659V22.2659H18.7859C18.672 22.457 18.6251 22.6807 18.6526 22.9015C18.6801 23.1223 18.7805 23.3277 18.9378 23.485C19.0952 23.6424 19.3005 23.7428 19.5213 23.7703C19.7422 23.7978 19.9658 23.7509 20.157 23.637V26.2659C20.1551 26.3984 20.1796 26.5299 20.229 26.6529C20.2784 26.7759 20.3518 26.8878 20.4448 26.9822C20.5379 27.0765 20.6488 27.1515 20.771 27.2026C20.8933 27.2538 21.0245 27.2801 21.157 27.2801C21.2895 27.2801 21.4207 27.2538 21.543 27.2026C21.6652 27.1515 21.7761 27.0765 21.8692 26.9822C21.9622 26.8878 22.0356 26.7759 22.085 26.6529C22.1344 26.5299 22.1589 26.3984 22.157 26.2659V22.2659H26.157C26.2895 22.2677 26.4211 22.2433 26.544 22.1938C26.667 22.1444 26.7789 22.0711 26.8733 21.978C26.9677 21.885 27.0426 21.7741 27.0938 21.6519C27.1449 21.5296 27.1712 21.3984 27.1712 21.2659C27.1712 21.1333 27.1449 21.0021 27.0938 20.8799C27.0426 20.7576 26.9677 20.6468 26.8733 20.5537C26.7789 20.4607 26.667 20.3873 26.544 20.3379C26.4211 20.2885 26.2895 20.264 26.157 20.2659H23.5261C23.6174 20.1119 23.6657 19.9363 23.666 19.7574C23.6663 19.5784 23.6185 19.4027 23.5278 19.2485C23.437 19.0943 23.3065 18.9672 23.1499 18.8806C22.9933 18.794 22.8163 18.751 22.6375 18.7561C22.4682 18.7609 22.3028 18.8086 22.157 18.8948V10.2659H26.157C26.2895 10.2677 26.4211 10.2433 26.544 10.1938C26.667 10.1444 26.7789 10.0711 26.8733 9.97803C26.9677 9.88498 27.0426 9.77411 27.0938 9.65186C27.1449 9.5296 27.1712 9.39839 27.1712 9.26587C27.1712 9.13334 27.1449 9.00214 27.0938 8.87988C27.0426 8.75763 26.9677 8.64675 26.8733 8.55371C26.7789 8.46066 26.667 8.3873 26.544 8.33789C26.4211 8.28848 26.2895 8.264 26.157 8.26587H23.5261C23.6174 8.11194 23.6657 7.93635 23.666 7.7574C23.6663 7.57845 23.6185 7.4027 23.5278 7.24849C23.437 7.09427 23.3065 6.96723 23.1499 6.88063C22.9933 6.79402 22.8163 6.75102 22.6375 6.7561C22.4682 6.76089 22.3028 6.80861 22.157 6.89478V4.26587C22.1588 4.13208 22.1338 3.99928 22.0834 3.87534C22.033 3.7514 21.9582 3.63884 21.8635 3.54432C21.7688 3.4498 21.6561 3.37524 21.532 3.32506C21.408 3.27488 21.2752 3.25011 21.1414 3.2522C20.8765 3.25634 20.6241 3.3654 20.4395 3.55544C20.255 3.74549 20.1534 4.00099 20.157 4.26587V8.26587H11.5261C11.6174 8.11194 11.6657 7.93635 11.666 7.7574C11.6663 7.57845 11.6185 7.4027 11.5278 7.24849C11.437 7.09427 11.3065 6.96723 11.1499 6.88063C10.9933 6.79402 10.8163 6.75102 10.6375 6.7561C10.4682 6.76089 10.3028 6.80861 10.157 6.89478V4.26587C10.1588 4.13208 10.1338 3.99928 10.0834 3.87534C10.033 3.7514 9.9582 3.63884 9.86349 3.54432C9.76879 3.4498 9.65608 3.37524 9.53205 3.32506C9.40801 3.27488 9.27516 3.25011 9.14138 3.2522V3.2522ZM10.157 10.2659H18.7879C18.6746 10.4568 18.6281 10.6801 18.6557 10.9004C18.6833 11.1207 18.7835 11.3256 18.9404 11.4827C19.0973 11.6399 19.302 11.7403 19.5223 11.7682C19.7425 11.7961 19.9659 11.75 20.157 11.637V20.2659H11.5261C11.6174 20.1119 11.6657 19.9363 11.666 19.7574C11.6663 19.5784 11.6185 19.4027 11.5278 19.2485C11.437 19.0943 11.3065 18.9672 11.1499 18.8806C10.9933 18.794 10.8163 18.751 10.6375 18.7561C10.4682 18.7609 10.3028 18.8086 10.157 18.8948V10.2659Z" fill="black"/>
</svg>
