<svg width="31" height="31" viewBox="0 0 31 31" fill="none" xmlns="http://www.w3.org/2000/svg">
<path d="M15.1413 3.26588C14.8442 3.26907 14.5547 3.36043 14.3096 3.52838C14.0644 3.69633 13.8747 3.9333 13.7644 4.20924L7.7644 19.2092C7.75685 19.228 7.74969 19.2469 7.74291 19.2659H7.15697C7.02446 19.264 6.8929 19.2885 6.76993 19.3379C6.64696 19.3873 6.53504 19.4607 6.44067 19.5537C6.3463 19.6468 6.27137 19.7576 6.22022 19.8799C6.16907 20.0022 6.14273 20.1334 6.14273 20.2659C6.14273 20.3984 6.16907 20.5296 6.22022 20.6519C6.27137 20.7741 6.3463 20.885 6.44067 20.978C6.53504 21.0711 6.64696 21.1444 6.76993 21.1939C6.8929 21.2433 7.02446 21.2678 7.15697 21.2659H8.83275C9.03752 21.3092 9.24908 21.3092 9.45385 21.2659H11.157C11.2895 21.2678 11.421 21.2433 11.544 21.1939C11.667 21.1444 11.7789 21.0711 11.8733 20.978C11.9676 20.885 12.0426 20.7741 12.0937 20.6519C12.1449 20.5296 12.1712 20.3984 12.1712 20.2659C12.1712 20.1334 12.1449 20.0022 12.0937 19.8799C12.0426 19.7576 11.9676 19.6468 11.8733 19.5537C11.7789 19.4607 11.667 19.3873 11.544 19.3379C11.421 19.2885 11.2895 19.264 11.157 19.2659H10.9714L12.1726 16.2659H18.1413L19.3425 19.2659H19.157C19.0245 19.264 18.8929 19.2885 18.7699 19.3379C18.647 19.3873 18.535 19.4607 18.4407 19.5537C18.3463 19.6468 18.2714 19.7576 18.2202 19.8799C18.1691 20.0022 18.1427 20.1334 18.1427 20.2659C18.1427 20.3984 18.1691 20.5296 18.2202 20.6519C18.2714 20.7741 18.3463 20.885 18.4407 20.978C18.535 21.0711 18.647 21.1444 18.7699 21.1939C18.8929 21.2433 19.0245 21.2678 19.157 21.2659H20.8503C21.0576 21.3103 21.272 21.3103 21.4792 21.2659H23.157C23.2895 21.2678 23.421 21.2433 23.544 21.1939C23.667 21.1444 23.7789 21.0711 23.8733 20.978C23.9676 20.885 24.0426 20.7741 24.0937 20.6519C24.1449 20.5296 24.1712 20.3984 24.1712 20.2659C24.1712 20.1334 24.1449 20.0022 24.0937 19.8799C24.0426 19.7576 23.9676 19.6468 23.8733 19.5537C23.7789 19.4607 23.667 19.3873 23.544 19.3379C23.421 19.2885 23.2895 19.264 23.157 19.2659H22.571C22.5643 19.2469 22.5571 19.228 22.5496 19.2092L16.5496 4.20924C16.4373 3.92836 16.2428 3.68797 15.9914 3.51962C15.7401 3.35127 15.4438 3.26282 15.1413 3.26588V3.26588ZM15.157 8.80495L17.3406 14.2659H12.9734L15.157 8.80495ZM6.15697 24.2659V27.2659H24.157V24.2659H6.15697Z" fill="black"/>
</svg>
