<svg width="43" height="43" viewBox="0 0 43 43" fill="none" xmlns="http://www.w3.org/2000/svg">
<g clip-path="url(#clip0_17_49)">
<path d="M22.7843 7.14114C22.0044 6.3612 20.7358 6.3612 19.9559 7.14114L15.7133 11.3838C14.9333 12.1637 14.9333 13.4323 15.7133 14.2122L19.9559 18.4549C20.7358 19.2348 22.0044 19.2348 22.7843 18.4549L27.027 14.2122C27.8069 13.4323 27.8069 12.1637 27.027 11.3838L22.7843 7.14114ZM31.2696 15.6264C30.4897 14.8465 29.2211 14.8465 28.4412 15.6264L24.1985 19.8691C23.4186 20.649 23.4186 21.9176 24.1985 22.6975L28.4412 26.9401C29.2211 27.7201 30.4897 27.7201 31.2696 26.9401L35.5123 22.6975C36.2922 21.9176 36.2922 20.649 35.5123 19.8691L31.2696 15.6264ZM14.299 15.6264C13.5191 14.8465 12.2506 14.8465 11.4706 15.6264L7.22798 19.8691C6.44804 20.649 6.44804 21.9176 7.22798 22.6975L11.4706 26.9401C12.2506 27.7201 13.5191 27.7201 14.299 26.9401L18.5417 22.6975C19.3216 21.9176 19.3216 20.649 18.5417 19.8691L14.299 15.6264ZM22.7843 24.1117C22.0044 23.3318 20.7358 23.3318 19.9559 24.1117L15.7133 28.3543C14.9333 29.1343 14.9333 30.4028 15.7133 31.1828L19.9559 35.4254C20.7358 36.2054 22.0044 36.2054 22.7843 35.4254L27.027 31.1828C27.8069 30.4028 27.8069 29.1343 27.027 28.3543L22.7843 24.1117Z" fill="black"/>
</g>
<defs>
<clipPath id="clip0_17_49">
<rect width="30" height="30" fill="white" transform="translate(21.3701 0.0700684) rotate(45)"/>
</clipPath>
</defs>
</svg>
