<svg width="150" height="113" viewBox="0 0 150 113" fill="none" xmlns="http://www.w3.org/2000/svg">
<path d="M102.139 88.3417C101.835 89.2312 101.661 89.8366 101.425 90.4166C99.98 93.9651 97.1394 95.8094 93.6375 96.9603C84.1544 100.075 74.7 103.262 65.2325 106.416C64.6664 106.604 64.0891 106.757 63.3159 106.988C63.2522 106.356 63.1554 105.836 63.1545 105.316C63.1423 100.123 63.1506 94.9306 63.1433 89.7383C63.1433 87.9991 63.0762 87.948 61.446 88.4458C60.1656 88.8351 58.8968 89.2662 57.6251 89.6867C56.3991 90.0921 55.7168 90.8254 55.7713 92.2405C55.8535 94.37 55.7752 96.5053 55.7956 98.6377C55.8087 100.017 56.0353 100.158 57.3868 99.7569L59.0709 99.2552C59.0709 102.012 59.2022 104.593 58.9853 107.145C58.9255 107.845 57.9402 108.768 57.1787 109.054C53.9437 110.271 50.6329 111.289 47.1348 112.451C47.0741 111.776 46.989 111.254 46.989 110.733C46.9797 104.613 47.0911 98.4907 46.95 92.3743C46.8324 87.2711 49.6734 82.9338 55.0029 81.2428C60.2006 79.5956 65.3511 77.8004 70.5265 76.0807C70.9014 75.9561 71.3046 75.9177 71.8551 75.8067C71.8915 76.5595 71.9441 77.1469 71.945 77.7347C71.9528 82.8808 71.9674 88.0273 71.9402 93.1729C71.9343 94.2795 72.2859 94.7787 73.4205 94.3953C79.5934 92.3125 85.766 90.2288 91.9383 88.1441C92.9596 87.8005 93.4094 87.1329 93.4011 86.0638C93.3807 83.4214 93.3467 80.7776 93.4172 78.1367C93.4522 76.8228 92.7913 76.1629 91.6844 75.7926C86.2071 73.9614 80.7312 72.1259 75.2427 70.3302C73.1856 69.6572 73.1632 69.7039 73.1584 67.5891C73.1535 65.1783 73.102 62.7647 73.2119 60.3588C73.2362 59.8294 73.7497 59.0182 74.2171 58.8576C82.0316 56.1665 89.8763 53.5582 97.8947 50.8701C97.9603 51.3407 98.0561 51.7203 98.0595 52.1008C98.0746 53.8624 98.0809 55.6244 98.0595 57.3855C98.0347 59.3033 97.3981 60.2698 95.5511 60.9267C92.5904 61.9793 89.5996 62.9467 86.6229 63.9545C86.4556 64.0109 86.3019 64.1053 85.6931 64.3978C87.6529 65.101 89.2582 65.6757 90.8626 66.2523C92.732 66.9239 94.684 67.429 96.4523 68.3044C100.229 70.175 102.068 73.4018 102.239 77.5712C102.317 79.469 102.288 81.3727 102.246 83.273C102.223 84.31 102.613 84.6209 103.587 84.2949C110.592 81.9322 117.598 79.5741 124.605 77.2208C131.261 74.9872 137.918 72.7585 144.577 70.5346C145.934 70.0801 147.308 69.6713 148.639 69.1526C149.664 68.7531 150.005 69.0898 149.994 70.101C149.975 71.8626 150.032 73.6261 149.971 75.3858C149.904 77.3323 149.099 78.3055 147.232 78.9333C134.31 83.2629 121.387 87.5939 108.466 91.9261C106.212 92.6814 104.045 91.7904 102.977 89.6804C102.779 89.2901 102.519 88.9397 102.139 88.3417Z" fill="#B3B1B2"/>
<path d="M0.110484 92.7346C0.110484 90.1248 0.0132217 87.6737 0.150362 85.2405C0.220391 83.9831 1.24165 83.2274 2.39566 82.8342C5.67633 81.7166 8.96542 80.6239 12.2629 79.5563C15.3165 78.5723 16.1403 77.5173 16.1423 74.3431C16.1481 64.0484 16.1492 53.7535 16.1457 43.4585C16.1457 40.5757 16.7535 39.6628 19.4322 38.7139C21.1659 38.1003 22.9302 37.5737 24.999 36.9056V75.2686C27.6576 74.3679 29.9876 73.6414 32.2547 72.7538C32.6739 72.5893 33.0635 71.7805 33.0815 71.2559C33.1671 68.708 33.1209 66.1561 33.1214 63.6052C33.1214 55.0267 33.1236 46.4477 33.1282 37.8681C33.133 34.6433 33.5041 34.1275 36.581 33.033C38.2544 32.4384 39.9526 31.9138 41.9192 31.2656V33.3747C41.9192 36.9917 41.9426 40.6093 41.908 44.2264C41.8969 45.4235 42.3642 45.6979 43.4414 45.3237C46.2771 44.3403 49.1098 43.3436 51.9752 42.4526C52.7225 42.2336 53.5156 42.2245 54.2677 42.4264C56.3977 43.0317 58.5025 43.7378 60.5834 44.4974C64.7774 46.0274 67.4492 48.9773 67.8431 53.4596C68.1421 56.8616 68.1577 60.3346 67.8392 63.7332C67.383 68.5941 64.3611 71.4676 59.797 72.9659C50.3558 76.0648 40.9432 79.2512 31.5238 82.4162C28.6298 83.3894 26.3553 82.3081 25.3613 79.4298C25.2154 79.0049 25.0894 78.5723 24.8463 77.7991C24.5413 78.7037 24.3682 79.2911 24.1474 79.8599C22.6014 83.8425 19.7176 86.3685 15.6948 87.6946C10.7831 89.317 5.88495 90.989 0.978551 92.6314C0.772841 92.702 0.538925 92.6874 0.110484 92.7346ZM41.9202 62.2291H41.9289C41.9289 64.2656 41.9231 66.3021 41.9324 68.3386C41.9358 69.0228 42.0782 69.5688 42.9881 69.2632C47.7968 67.6418 52.6045 66.0169 57.4229 64.4232C58.7777 63.9751 59.2995 63.0972 59.2353 61.6981C59.1653 60.174 59.2208 58.6446 59.2208 57.1171C59.2208 53.2912 59.2339 53.244 55.5287 52.2022C54.3732 51.8776 53.029 51.5209 51.9382 51.8085C48.9591 52.5973 46.0811 53.7598 43.136 54.6932C42.212 54.9852 41.8959 55.4903 41.91 56.3993C41.9416 58.3409 41.9202 60.2855 41.9202 62.2291Z" fill="#B3B1B2"/>
<path d="M114.803 71.5271C114.803 68.7479 114.715 66.2958 114.84 63.8544C114.905 62.5858 115.891 61.8739 117.077 61.4773C124.482 59.0052 131.876 56.4972 139.293 54.0631C140.722 53.594 141.281 52.7521 141.268 51.3044C141.233 47.6435 141.264 43.9817 141.255 40.3208C141.25 38.4624 140.89 37.9315 139.167 37.3524C132.161 35.0026 125.151 32.6651 118.137 30.3396C115.107 29.3416 114.759 28.9284 114.763 25.6909C114.765 23.9761 114.775 22.2615 114.792 20.5473C114.792 20.4213 114.874 20.2957 114.967 20.0281C117.474 20.8617 119.964 21.6826 122.451 22.5191C129.194 24.7809 135.941 27.0272 142.673 29.3197C147.007 30.7956 149.606 33.8584 149.829 38.4196C150.069 43.3705 150.056 48.3304 149.792 53.2801C149.556 57.757 146.89 60.7298 142.723 62.1649C134.561 64.9776 126.352 67.6521 118.162 70.3854C117.128 70.7329 116.096 71.0886 114.803 71.5271Z" fill="#F7D141"/>
<path d="M125.832 51.2732C123.684 50.5768 121.855 50.0007 120.036 49.3909C112.811 46.9695 105.588 44.5435 98.3654 42.113C93.5217 40.4945 90.7814 36.7815 90.7609 31.6992C90.7444 27.6203 90.7444 23.5418 90.7609 19.4635C90.7755 14.3944 93.3554 10.7447 98.1986 9.08917C106.894 6.11736 115.609 3.19615 124.316 0.264724C124.694 0.136741 125.116 0.121656 125.833 0C125.833 1.11924 125.833 2.10806 125.833 3.09736C125.833 4.25602 125.841 5.41467 125.829 6.57332C125.808 8.60547 125.449 9.17238 123.495 9.84149C119.038 11.3671 114.563 12.8396 110.098 14.3384C107.12 15.3379 104.153 16.3769 101.162 17.336C99.942 17.7253 99.5112 18.481 99.5238 19.7161C99.563 23.6091 99.563 27.5021 99.5238 31.3951C99.5092 32.7089 100.046 33.4253 101.291 33.8374C108.615 36.2598 115.921 38.7368 123.239 41.1777C125.379 41.8906 125.816 42.4293 125.828 44.677C125.842 46.785 125.832 48.8936 125.832 51.2732Z" fill="#F7D141"/>
<path d="M0.109926 79.7724C0.0778296 79.3427 0.00974593 78.8551 0.00925962 78.3675C0.00342388 68.4466 0.00342388 58.5256 0.00925962 48.6046C0.0116912 45.8017 0.473201 45.1559 3.10172 44.2386C4.83883 43.6323 6.58809 43.0605 8.54841 42.4011C8.62914 43.062 8.7371 43.5345 8.73759 44.007C8.74764 53.9283 8.74878 63.8494 8.74099 73.7704C8.7371 76.6069 7.98624 77.5349 5.27602 78.3549C3.68627 78.8366 2.11499 79.3812 0.533504 79.8887C0.460071 79.9111 0.360377 79.8444 0.109926 79.7724Z" fill="#B3B1B2"/>
</svg>
