<svg width="31" height="31" viewBox="0 0 31 31" fill="none" xmlns="http://www.w3.org/2000/svg">
<g clip-path="url(#clip0_17_45)">
<path d="M22.157 7.28345C20.024 7.28345 8.66998 7.28345 8.15698 7.28345C3.73898 7.28345 0.156982 10.8654 0.156982 15.2834C0.156982 19.7014 3.73898 23.2834 8.15698 23.2834C8.66998 23.2834 20.024 23.2834 22.157 23.2834C26.575 23.2834 30.157 19.7014 30.157 15.2834C30.157 10.8654 26.575 7.28345 22.157 7.28345ZM22.157 21.2834C18.843 21.2834 16.157 18.5974 16.157 15.2834C16.157 11.9694 18.843 9.28345 22.157 9.28345C25.471 9.28345 28.157 11.9694 28.157 15.2834C28.157 18.5974 25.471 21.2834 22.157 21.2834Z" fill="black"/>
</g>
<defs>
<clipPath id="clip0_17_45">
<rect width="30" height="30" fill="white" transform="translate(0.156982 0.283447)"/>
</clipPath>
</defs>
</svg>
